<?xml version="1.0" encoding="utf-8"?>
<!DOCTYPE svg PUBLIC "-//W3C//DTD SVG 20010904//EN" "http://www.w3.org/TR/2001/REC-SVG-20010904/DTD/svg10.dtd">
<svg version="1.0" xmlns="http://www.w3.org/2000/svg" width="2002pt" height="2002pt" viewBox="0 0 2002 2002" style="" preserveAspectRatio="xMidYMid meet">
<defs>
<linearGradient id="kiteGradient" x1="0%" y1="0%" x2="100%" y2="100%">
<stop offset="0.00343514" stop-color="#EF4857"/>
<stop offset="0.4689" stop-color="#D211EC"/>
<stop offset="1" stop-color="#7F52FF"/>
</linearGradient>
</defs>
<g>
<path fill="url(#kiteGradient)" stroke="none" d="M 1485.000 424.484 C 1448.902 426.190 1428.057 427.579 1401.000 430.083 C 1333.383 436.340 1244.890 442.911 1159.925 447.983 C 1150.808 448.527 1136.408 449.862 1127.925 450.949 C 1105.310 453.845 1082.425 455.796 1057.000 456.993 C 1044.625 457.576 1014.025 459.359 989.000 460.957 C 963.975 462.554 937.097 464.123 929.272 464.444 C 904.263 465.468 889.578 468.747 855.000 481.028 C 844.275 484.837 833.250 488.435 830.500 489.025 C 803.171 494.884 708.036 524.230 691.313 531.960 C 685.721 534.544 685.020 535.212 684.029 538.892 C 682.187 545.733 686.592 567.131 691.271 574.074 C 695.849 580.868 701.572 581.557 716.040 577.058 C 721.243 575.440 732.925 572.042 742.000 569.508 C 751.075 566.973 769.525 561.282 783.000 556.860 C 840.884 537.866 858.333 532.654 861.096 533.531 C 864.849 534.722 865.197 541.616 862.677 564.830 C 861.761 573.262 860.340 595.537 859.518 614.330 C 858.696 633.124 857.569 651.875 857.013 656.000 C 856.457 660.125 855.546 677.225 854.988 694.000 C 854.430 710.775 853.325 731.925 852.532 741.000 C 851.739 750.075 850.823 763.575 850.497 771.000 C 850.171 778.425 849.250 794.850 848.450 807.500 C 847.650 820.150 846.314 844.675 845.481 862.000 C 843.503 903.141 840.540 952.873 837.438 997.000 C 836.066 1016.525 834.507 1039.475 833.974 1048.000 C 833.442 1056.525 832.579 1066.650 832.056 1070.500 C 831.534 1074.350 830.837 1082.900 830.507 1089.500 C 830.178 1096.100 829.481 1105.775 828.960 1111.000 C 827.206 1128.575 818.000 1264.024 817.996 1272.304 C 817.992 1281.989 816.187 1285.858 810.289 1288.826 C 802.281 1292.856 772.905 1304.071 766.362 1305.596 C 762.588 1306.476 754.550 1308.477 748.500 1310.043 C 717.786 1317.992 695.808 1320.417 661.500 1319.643 C 646.899 1319.313 631.554 1318.428 626.500 1317.623 C 621.550 1316.835 611.200 1315.213 603.500 1314.019 C 585.348 1311.204 553.644 1303.509 533.820 1297.108 C 505.273 1287.889 480.405 1282.228 451.224 1278.304 C 432.459 1275.781 385.643 1275.803 370.558 1278.342 C 352.841 1281.324 339.693 1286.180 332.149 1292.528 C 328.439 1295.650 328.275 1297.514 330.491 1311.288 C 332.372 1322.978 339.474 1338.469 343.685 1340.070 C 346.876 1341.283 353.460 1340.059 365.858 1335.947 C 383.516 1330.091 385.700 1329.792 414.674 1329.276 C 448.002 1328.682 463.890 1330.521 486.000 1337.531 C 490.125 1338.839 497.546 1340.851 502.492 1342.002 C 507.437 1343.153 517.562 1345.844 524.992 1347.983 C 564.369 1359.316 582.277 1363.668 603.500 1367.059 C 654.702 1375.239 699.561 1374.730 740.000 1365.508 C 754.020 1362.310 763.954 1360.704 767.000 1361.141 C 771.134 1361.735 770.664 1365.160 765.413 1372.715 C 757.372 1384.282 751.351 1390.973 735.148 1406.351 C 726.542 1414.519 716.575 1423.982 713.000 1427.380 C 709.425 1430.778 704.341 1434.670 701.701 1436.029 C 699.062 1437.388 690.737 1443.023 683.201 1448.550 C 658.398 1466.744 652.611 1470.664 642.500 1476.118 C 629.430 1483.170 614.581 1490.021 604.000 1493.883 C 599.325 1495.589 589.386 1499.211 581.913 1501.931 C 549.270 1513.814 493.248 1523.519 431.500 1527.988 C 423.250 1528.586 415.750 1529.301 414.834 1529.578 C 411.935 1530.454 411.000 1535.849 411.000 1551.706 C 411.000 1567.605 412.091 1575.000 414.764 1577.220 C 416.999 1579.077 438.854 1579.466 461.000 1578.043 C 481.164 1576.748 493.743 1575.219 516.000 1571.356 C 523.975 1569.972 532.975 1568.461 536.000 1567.999 C 552.927 1565.414 556.823 1564.657 560.000 1563.335 C 561.925 1562.534 567.274 1560.996 571.886 1559.916 C 576.499 1558.837 583.024 1556.861 586.386 1555.526 C 589.749 1554.190 596.775 1551.675 602.000 1549.938 C 618.615 1544.413 651.563 1531.034 657.638 1527.345 C 660.862 1525.388 670.700 1519.980 679.500 1515.327 C 703.969 1502.391 719.850 1491.304 740.000 1473.089 C 752.590 1461.709 772.804 1441.443 781.483 1431.500 C 785.323 1427.100 792.973 1418.769 798.483 1412.987 C 808.239 1402.749 822.943 1382.495 838.040 1358.500 C 849.031 1341.029 852.351 1338.558 879.000 1328.003 C 884.775 1325.716 894.675 1321.569 901.000 1318.787 C 907.325 1316.006 915.425 1312.715 919.000 1311.474 C 922.575 1310.234 933.150 1306.214 942.500 1302.541 C 969.284 1292.021 973.508 1290.427 990.393 1284.474 C 999.134 1281.392 1018.709 1273.564 1033.893 1267.080 C 1049.077 1260.595 1070.725 1251.804 1082.000 1247.544 C 1111.704 1236.321 1165.778 1214.826 1201.500 1200.041 C 1218.550 1192.985 1239.925 1184.398 1249.000 1180.960 C 1265.644 1174.655 1292.022 1164.112 1323.750 1151.084 C 1333.238 1147.188 1352.363 1139.777 1366.250 1134.614 C 1400.379 1121.928 1440.791 1106.010 1456.000 1099.263 C 1470.422 1092.865 1492.981 1084.113 1514.500 1076.565 C 1522.750 1073.672 1532.650 1069.722 1536.500 1067.787 C 1540.350 1065.853 1549.800 1061.903 1557.500 1059.009 C 1565.200 1056.116 1577.500 1051.304 1584.833 1048.316 C 1592.517 1045.185 1599.295 1043.014 1600.833 1043.192 C 1603.351 1043.483 1603.491 1043.778 1603.336 1048.500 C 1603.231 1051.709 1600.085 1062.966 1594.555 1079.924 C 1589.816 1094.457 1584.353 1112.682 1582.415 1120.424 C 1580.478 1128.166 1577.316 1139.410 1575.388 1145.412 C 1573.461 1151.413 1570.745 1161.088 1569.354 1166.912 C 1567.963 1172.735 1565.543 1182.225 1563.976 1188.000 C 1560.116 1202.222 1559.429 1208.697 1561.302 1213.181 C 1563.074 1217.421 1568.094 1221.468 1574.693 1223.975 C 1580.750 1226.277 1600.024 1229.588 1602.294 1228.717 C 1605.573 1227.459 1614.070 1204.450 1620.100 1180.500 C 1621.762 1173.900 1624.915 1162.875 1627.107 1156.000 C 1629.299 1149.125 1633.119 1135.400 1635.597 1125.500 C 1640.807 1104.683 1648.569 1077.466 1652.993 1064.500 C 1654.682 1059.550 1656.969 1051.900 1658.076 1047.500 C 1659.182 1043.100 1661.603 1034.775 1663.455 1029.000 C 1675.017 992.946 1675.425 988.516 1669.117 967.461 C 1666.982 960.332 1664.706 951.125 1664.060 947.000 C 1663.414 942.875 1660.885 930.950 1658.439 920.500 C 1655.994 910.050 1651.715 890.700 1648.930 877.500 C 1646.145 864.300 1640.719 840.000 1636.872 823.500 C 1633.025 807.000 1627.683 782.700 1625.003 769.500 C 1622.322 756.300 1617.412 734.700 1614.091 721.500 C 1610.771 708.300 1605.140 684.450 1601.579 668.500 C 1589.977 616.540 1588.902 611.805 1582.959 586.500 C 1576.867 560.559 1566.979 516.411 1562.017 493.000 C 1551.551 443.620 1546.987 431.953 1535.906 426.253 C 1529.754 423.089 1520.987 422.784 1485.000 424.484 M 932.718 552.375 C 964.791 573.388 1016.611 607.013 1027.500 613.878 C 1034.100 618.038 1043.842 624.661 1049.150 628.594 C 1054.457 632.527 1062.782 638.146 1067.650 641.080 C 1077.595 647.075 1132.858 683.329 1152.000 696.416 C 1158.875 701.116 1168.903 707.670 1174.285 710.979 C 1187.266 718.961 1200.589 727.875 1211.000 735.545 C 1215.675 738.989 1223.325 744.152 1228.000 747.018 C 1238.263 753.309 1244.000 758.569 1244.000 761.687 C 1244.000 763.962 1236.671 774.127 1223.949 789.500 C 1220.307 793.900 1209.214 808.300 1199.298 821.500 C 1189.382 834.700 1177.310 850.225 1172.471 856.000 C 1167.632 861.775 1159.838 871.675 1155.150 878.000 C 1150.462 884.325 1141.597 895.575 1135.450 903.000 C 1129.303 910.425 1121.175 920.609 1117.387 925.632 C 1113.599 930.654 1102.379 944.829 1092.454 957.132 C 1082.528 969.434 1058.943 1000.200 1040.043 1025.500 C 991.712 1090.194 990.073 1092.340 980.448 1103.500 C 969.162 1116.587 957.503 1131.539 946.529 1147.000 C 929.970 1170.331 920.729 1182.488 916.108 1187.021 C 909.998 1193.015 896.902 1209.154 889.739 1219.516 C 882.764 1229.607 875.700 1234.560 873.458 1230.932 C 872.488 1229.362 872.578 1226.145 874.406 1197.000 C 878.837 1126.374 883.987 1041.359 884.976 1022.500 C 885.582 1010.950 886.501 997.225 887.018 992.000 C 887.536 986.775 888.448 971.496 889.046 958.047 C 889.644 944.598 890.342 933.255 890.599 932.840 C 891.137 931.970 892.285 916.276 894.502 879.500 C 895.364 865.200 896.938 842.475 898.000 829.000 C 899.061 815.525 900.611 788.975 901.443 770.000 C 902.275 751.025 903.422 729.200 903.992 721.500 C 904.562 713.800 905.491 697.600 906.057 685.500 C 907.179 661.492 909.592 624.730 910.980 610.500 C 911.463 605.550 911.890 593.205 911.929 583.068 C 912.037 555.116 913.918 544.000 918.539 544.000 C 919.307 544.000 925.688 547.769 932.718 552.375 M 1306.255 796.742 C 1316.195 803.803 1344.673 823.238 1361.000 834.104 C 1368.425 839.045 1377.315 844.981 1380.755 847.294 C 1402.056 861.619 1434.446 882.732 1443.219 888.011 C 1448.874 891.414 1459.350 898.384 1466.500 903.500 C 1473.650 908.616 1485.199 916.416 1492.165 920.834 C 1499.131 925.252 1512.181 933.778 1521.165 939.782 C 1542.829 954.258 1561.523 966.437 1572.266 973.074 C 1582.998 979.705 1590.000 985.567 1590.000 987.923 C 1590.000 991.412 1585.202 994.208 1571.000 998.993 C 1558.346 1003.256 1530.720 1014.332 1513.895 1021.889 C 1506.412 1025.250 1499.746 1028.000 1499.082 1028.000 C 1496.241 1028.000 1359.899 1081.307 1294.973 1107.803 C 1275.984 1115.552 1253.259 1124.593 1244.473 1127.893 C 1235.688 1131.194 1223.550 1136.008 1217.500 1138.591 C 1203.084 1144.748 1176.665 1154.974 1161.000 1160.462 C 1154.125 1162.871 1144.000 1166.740 1138.500 1169.060 C 1133.000 1171.380 1124.000 1174.904 1118.500 1176.889 C 1113.000 1178.875 1107.375 1181.264 1106.000 1182.197 C 1103.102 1184.165 1087.494 1190.776 1074.500 1195.540 C 1069.550 1197.354 1061.954 1200.491 1057.621 1202.509 C 1053.288 1204.528 1045.536 1207.702 1040.395 1209.563 C 1035.254 1211.424 1025.975 1215.041 1019.774 1217.601 C 1013.573 1220.160 1001.935 1224.626 993.911 1227.525 C 985.887 1230.424 977.562 1233.691 975.411 1234.787 C 967.049 1239.045 941.592 1249.000 939.064 1249.000 C 936.025 1249.000 934.000 1247.371 934.000 1244.927 C 934.000 1243.412 943.364 1231.025 968.280 1199.581 C 973.109 1193.486 984.550 1178.600 993.705 1166.500 C 1002.860 1154.400 1013.862 1140.139 1018.155 1134.810 C 1022.448 1129.480 1029.477 1120.255 1033.776 1114.310 C 1038.075 1108.364 1047.660 1095.850 1055.077 1086.500 C 1062.493 1077.150 1071.248 1065.911 1074.531 1061.525 C 1077.814 1057.139 1086.285 1046.564 1093.356 1038.025 C 1105.403 1023.477 1116.490 1009.008 1133.800 985.246 C 1137.815 979.735 1147.407 967.637 1155.116 958.363 C 1173.239 936.558 1185.274 920.823 1220.257 873.188 C 1222.403 870.267 1224.813 867.625 1225.614 867.318 C 1226.414 867.011 1228.480 864.676 1230.203 862.130 C 1231.926 859.583 1236.505 853.450 1240.378 848.500 C 1244.250 843.550 1250.812 835.166 1254.959 829.868 C 1259.107 824.571 1265.814 815.729 1269.865 810.221 C 1273.916 804.712 1279.182 798.080 1281.566 795.483 L 1285.902 790.761 1292.456 791.178 C 1298.439 791.559 1299.640 792.043 1306.255 796.742 M 1456.453 479.161 C 1458.384 480.040 1458.999 481.068 1458.996 483.411 C 1458.992 485.813 1456.854 489.167 1449.379 498.500 C 1444.092 505.100 1438.519 511.850 1436.995 513.500 C 1435.471 515.150 1433.467 518.001 1432.543 519.835 C 1431.618 521.669 1428.061 526.394 1424.640 530.335 C 1410.575 546.533 1401.002 559.004 1379.653 588.937 C 1376.344 593.578 1367.331 605.053 1359.626 614.437 C 1351.920 623.822 1342.018 636.450 1337.621 642.500 C 1318.884 668.283 1306.901 684.150 1297.848 695.164 C 1292.539 701.623 1286.914 708.716 1285.348 710.926 C 1281.454 716.421 1277.574 718.274 1273.545 716.561 C 1269.082 714.665 1246.588 700.261 1230.500 688.999 C 1191.388 661.618 1146.062 631.626 1062.526 577.852 C 1055.390 573.258 1044.683 566.125 1038.731 562.000 C 1026.813 553.740 1014.645 545.904 998.360 536.000 C 981.589 525.800 975.817 521.301 976.186 518.715 C 976.675 515.296 980.928 513.978 994.740 512.962 C 1001.758 512.446 1009.525 511.617 1012.000 511.120 C 1014.475 510.622 1020.775 509.936 1026.000 509.593 C 1031.225 509.251 1048.100 508.095 1063.500 507.025 C 1078.900 505.954 1100.500 504.586 1111.500 503.985 C 1122.500 503.384 1140.725 502.036 1152.000 500.990 C 1173.940 498.955 1179.460 498.575 1210.500 496.960 C 1221.500 496.387 1235.225 495.233 1241.000 494.396 C 1246.775 493.558 1261.175 492.482 1273.000 492.005 C 1297.255 491.026 1336.220 488.434 1349.000 486.948 C 1368.917 484.633 1404.982 481.506 1440.500 479.015 C 1446.000 478.629 1451.266 478.243 1452.203 478.157 C 1453.140 478.071 1455.052 478.522 1456.453 479.161 M 1512.252 505.750 C 1514.099 507.819 1515.559 513.218 1516.512 521.500 C 1516.892 524.800 1518.040 529.707 1519.064 532.404 C 1521.634 539.178 1525.360 554.529 1529.036 573.500 C 1530.742 582.300 1533.500 594.675 1535.167 601.000 C 1536.833 607.325 1539.055 616.550 1540.104 621.500 C 1541.153 626.450 1543.623 638.150 1545.593 647.500 C 1547.563 656.850 1550.915 671.925 1553.043 681.000 C 1562.383 720.830 1569.884 754.370 1575.520 781.500 C 1578.505 795.867 1585.818 830.242 1588.392 842.000 C 1589.776 848.325 1592.786 862.275 1595.080 873.000 C 1597.375 883.725 1600.726 897.314 1602.527 903.198 C 1604.328 909.082 1606.339 917.083 1606.996 920.978 C 1608.038 927.153 1607.983 928.376 1606.572 930.530 C 1605.590 932.029 1604.004 933.000 1602.538 933.000 C 1601.080 933.000 1591.072 926.920 1577.311 917.675 C 1564.765 909.246 1547.750 898.118 1539.500 892.946 C 1531.250 887.774 1520.225 880.508 1515.000 876.800 C 1509.775 873.092 1503.534 868.807 1501.131 867.279 C 1473.911 849.967 1323.903 748.688 1323.011 747.021 C 1321.570 744.328 1322.482 742.619 1331.025 732.000 C 1335.228 726.775 1342.195 717.374 1346.507 711.108 C 1350.818 704.843 1361.409 690.849 1370.041 680.011 C 1378.672 669.173 1391.261 652.924 1398.014 643.903 C 1410.631 627.050 1417.294 618.631 1420.100 616.000 C 1420.980 615.175 1426.266 608.425 1431.846 601.000 C 1445.242 583.176 1456.994 568.120 1465.091 558.406 C 1468.716 554.058 1474.321 546.900 1477.546 542.500 C 1480.772 538.100 1486.263 531.145 1489.750 527.045 C 1493.236 522.945 1498.166 516.420 1500.705 512.545 C 1503.243 508.670 1505.811 505.169 1506.410 504.765 C 1508.257 503.520 1510.617 503.918 1512.252 505.750 "/>
</g>
</svg>
